<svg xmlns="http://www.w3.org/2000/svg" xmlns:xlink="http://www.w3.org/1999/xlink" viewBox="0 0 104.38 101.9"><defs><style>.cls-1{fill:url(#New_Gradient_Swatch_20);}</style><linearGradient id="New_Gradient_Swatch_20" y1="50.95" x2="104.38" y2="50.95" gradientUnits="userSpaceOnUse"><stop offset="0" stop-color="#fff915"/><stop offset="0.5" stop-color="#ffca05"/><stop offset="1" stop-color="#fda500"/></linearGradient></defs><g id="Layer_2" data-name="Layer 2"><g id="Layer_1-2" data-name="Layer 1"><path class="cls-1" d="M35.22,91.84a38.71,38.71,0,0,1-14.47-9.12,33.15,33.15,0,0,1-7.58-12C9.26,59.94,5.1,49.3,1.51,38.46c-4.37-13.23,1-26.77,13.1-33.74,18.11-10.38,41-2.79,49.7,14.47,6.37,12.65,3.79,26.27-7.3,35-11.83,9.33-8.6,25,2.84,31.61,6.53,3.76,13.46,4.33,20.32,1.17,9.1-4.2,12.7-13.52,9-23C82.39,46.28,75.44,28.64,68.55,11c-.12-.32-.21-.66-.38-1.21a21.59,21.59,0,0,1,8.39,3.76A34.42,34.42,0,0,1,90.25,30.35c3.9,10.22,8.09,20.33,12,30.54,6.38,16.57-2.21,34-19.31,39.31-15.41,4.83-32.51-.92-41.48-14-9.39-13.62-7.06-30.56,5.81-40.93,10-8,9-22-1.82-29.23-7.57-5.06-15.7-5.56-23.67-.7-7.22,4.4-9.92,13.06-7,21q9.91,26.66,19.73,53.33C34.78,90.28,34.92,90.85,35.22,91.84Z"/></g></g></svg>